# File created by Blade
# Date/Time:  Wed Jan 21 16:27:40 2015
# Frame Rate: 120.000 fps
#------------------------------------------------------
:FULLY-SPECIFIED
:DEGREES
1172
root 17.592570 14.051214 -16.760979 -183.658833 27.903992 -195.284312
Spine 66.301102 -18.727595 -4.680713
Head 1.824467 -17.481894 -9.691794
LeftShoulder 22.660658 -40.589641 -5.358785
LeftArm 37.139595 38.724609 -62.514091
LeftForeArm 23.550948 -0.000000 4.938979
LeftHand -1.791552 0.000000 9.869320
LeftHandThumb1 -26.253704 0.000000 33.147579
RightShoulder 7.375440 -8.238140 1.398180
RightArm 53.887596 -12.289520 31.647107
RightForeArm -8.875333 0.000000 19.227483
RightHand -16.780418 -0.000000 -20.751931
RightHandThumb1 -24.326973 -0.000000 -32.862282
LeftUpLeg 7.497115 -3.588353 42.378461
LeftLeg 35.460918 -0.000000 -0.000000
LeftFoot 18.951530 50.564954 13.193971
LeftToeBase 23.419722 -0.000000 -0.000000
RightUpLeg -76.460082 -36.571739 -12.521874
RightLeg 6.151906 -0.000000 -0.000000
RightFoot 36.514701 -34.138086 -11.125996
RightToeBase 38.365557 -0.000000 -0.000000
1173
root 17.586741 14.199442 -16.705058 -183.141501 27.803963 -195.215832
Spine 66.321682 -19.053096 -4.357705
Head 1.165925 -17.371608 -9.553549
LeftShoulder 23.078643 -40.769681 -5.423995
LeftArm 37.476975 38.553560 -62.115196
LeftForeArm 23.294354 -0.000000 4.681025
LeftHand -1.991719 -0.000000 9.640221
LeftHandThumb1 -26.253704 0.000000 33.147579
RightShoulder 7.412546 -8.256690 1.547791
RightArm 54.389898 -11.834936 31.144103
RightForeArm -8.765930 -0.000000 18.867379
RightHand -16.811041 0.000000 -20.744546
RightHandThumb1 -24.326973 -0.000000 -32.862282
LeftUpLeg 7.190291 -2.505154 42.610606
LeftLeg 34.843076 -0.000000 -0.000000
LeftFoot 18.574139 50.515656 12.862127
LeftToeBase 23.271014 -0.000000 -0.000000
RightUpLeg -76.338980 -36.509060 -12.707268
RightLeg 6.118239 -0.000000 -0.000000
RightFoot 37.070055 -33.339434 -11.182366
RightToeBase 38.890767 -0.000000 -0.000000
1174
root 17.582812 14.335284 -16.644736 -182.554091 27.666900 -195.078357
Spine 66.285472 -19.429390 -3.977010
Head 0.518473 -17.204830 -9.371790
LeftShoulder 23.444213 -40.964057 -5.437651
LeftArm 37.802224 38.503140 -61.688621
LeftForeArm 23.061520 0.000000 4.556053
LeftHand -2.601343 0.000000 9.289422
LeftHandThumb1 -26.253704 0.000000 33.147579
RightShoulder 7.439385 -8.375032 1.644936
RightArm 54.921918 -11.418863 30.475795
RightForeArm -8.598490 0.000000 18.632840
RightHand -16.884129 -0.000000 -20.707909
RightHandThumb1 -24.326973 -0.000000 -32.862282
LeftUpLeg 6.806568 -1.458518 42.915793
LeftLeg 34.276868 -0.000000 -0.000000
LeftFoot 18.140109 50.355133 12.452774
LeftToeBase 22.898226 -0.000000 -0.000000
RightUpLeg -76.179059 -36.463300 -12.949301
RightLeg 6.038968 -0.000000 -0.000000
RightFoot 37.584452 -32.684209 -11.247405
RightToeBase 39.500115 -0.000000 -0.000000
1175
root 17.582050 14.461385 -16.595020 -182.033274 27.542508 -194.971183
Spine 66.262142 -19.728760 -3.479013
Head -0.238577 -17.177129 -9.197857
LeftShoulder 23.854102 -41.168624 -5.503292
LeftArm 38.260627 38.605559 -61.210758
LeftForeArm 22.624127 0.000000 4.348728
LeftHand -2.810571 -0.000000 9.262966
LeftHandThumb1 -26.253704 0.000000 33.147579
RightShoulder 7.234439 -8.434427 1.770764
RightArm 55.390328 -11.041686 29.853596
RightForeArm -8.648385 -0.000000 18.538024
RightHand -16.917346 -0.000000 -20.576572
RightHandThumb1 -24.326973 -0.000000 -32.862282
LeftUpLeg 6.539085 -0.532730 43.141203
LeftLeg 33.637749 -0.000000 -0.000000
LeftFoot 17.954955 50.248038 12.313764
LeftToeBase 22.253458 -0.000000 -0.000000
RightUpLeg -75.999501 -36.391072 -13.263679
RightLeg 5.982801 -0.000000 -0.000000
RightFoot 38.135152 -32.209936 -11.293536
RightToeBase 40.589168 -0.000000 -0.000000
1176
root 17.586754 14.571176 -16.540839 -181.414581 27.421289 -194.752297
Spine 66.165468 -20.128430 -3.012155
Head -0.853358 -17.059696 -9.168574
LeftShoulder 24.081225 -41.408189 -5.452143
LeftArm 38.364674 38.468322 -61.119356
LeftForeArm 22.461930 -0.000000 4.175882
LeftHand -2.847075 -0.000000 9.391946
LeftHandThumb1 -26.253704 0.000000 33.147579
RightShoulder 7.273239 -8.394318 1.807692
RightArm 55.648781 -10.760315 29.392657
RightForeArm -8.793504 -0.000000 18.421429
RightHand -16.796059 -0.000000 -20.512953
RightHandThumb1 -24.326973 -0.000000 -32.862282
LeftUpLeg 6.204182 0.544955 43.544773
LeftLeg 33.026374 -0.000000 -0.000000
LeftFoot 17.953101 50.085981 12.250619
LeftToeBase 21.857520 -0.000000 -0.000000
RightUpLeg -75.969297 -36.311554 -13.363240
RightLeg 6.001217 -0.000000 -0.000000
RightFoot 38.663061 -31.686904 -11.295648
RightToeBase 40.321060 -0.000000 -0.000000
1177
root 17.590513 14.675914 -16.491155 -180.872124 27.254390 -194.611466
Spine 66.069609 -20.491672 -2.574446
Head -1.437631 -16.953398 -9.055336
LeftShoulder 24.369864 -41.504383 -5.373923
LeftArm 38.635836 38.332069 -60.866863
LeftForeArm 22.169943 -0.000000 4.015198
LeftHand -2.887778 -0.000000 9.579076
LeftHandThumb1 -26.253704 0.000000 33.147579
RightShoulder 7.267360 -8.395913 1.914223
RightArm 55.830935 -10.494436 28.803579
RightForeArm -8.612414 -0.000000 18.501763
RightHand -16.717900 0.000000 -20.524518
RightHandThumb1 -24.326973 -0.000000 -32.862282
LeftUpLeg 5.908809 1.281205 43.754080
LeftLeg 32.415994 -0.000000 -0.000000
LeftFoot 17.989207 49.996451 12.339841
LeftToeBase 21.909733 -0.000000 -0.000000
RightUpLeg -75.808902 -36.214718 -13.759684
RightLeg 6.085265 -0.000000 -0.000000
RightFoot 39.352542 -31.194402 -11.266479
RightToeBase 40.897705 -0.000000 -0.000000
1178
root 17.597790 14.767805 -16.443595 -180.305276 27.060874 -194.405236
Spine 65.925720 -20.879079 -2.051637
Head -1.930565 -16.854862 -8.979425
LeftShoulder 24.682840 -41.611442 -5.327332
LeftArm 38.707806 38.050595 -60.858491
LeftForeArm 22.174845 -0.000000 3.880557
LeftHand -2.965082 -0.000000 9.534646
LeftHandThumb1 -26.253704 0.000000 33.147579
RightShoulder 7.248878 -8.383984 2.032689
RightArm 55.944148 -10.336985 28.059753
RightForeArm -8.135197 0.000000 18.740935
RightHand -16.771822 -0.000000 -20.649637
RightHandThumb1 -24.326973 -0.000000 -32.862282
LeftUpLeg 5.592816 1.947082 44.016058
LeftLeg 31.829793 -0.000000 -0.000000
LeftFoot 17.845789 49.958457 12.052436
LeftToeBase 22.241950 -0.000000 -0.000000
RightUpLeg -75.666690 -36.117632 -14.139817
RightLeg 6.270188 -0.000000 -0.000000
RightFoot 39.927672 -30.564855 -11.171402
RightToeBase 41.962944 -0.000000 -0.000000
1179
root 17.609267 14.839838 -16.401898 -179.700681 26.859081 -194.122919
Spine 65.704343 -21.341007 -1.462082
Head -2.358388 -16.699866 -9.089454
LeftShoulder 24.740253 -41.500819 -5.233320
LeftArm 39.144308 38.029573 -60.425034
LeftForeArm 21.837172 -0.000000 3.914709
LeftHand -3.073315 -0.000000 9.753779
LeftHandThumb1 -26.253704 0.000000 33.147579
RightShoulder 7.239316 -8.291760 2.034490
RightArm 55.997192 -10.205025 27.669716
RightForeArm -7.921972 -0.000000 18.860029
RightHand -16.602718 0.000000 -20.730445
RightHandThumb1 -24.326973 -0.000000 -32.862282
LeftUpLeg 5.270897 2.764570 44.430904
LeftLeg 31.278934 -0.000000 -0.000000
LeftFoot 17.626388 49.832624 11.713722
LeftToeBase 21.743429 -0.000000 -0.000000
RightUpLeg -75.529004 -35.987244 -14.584110
RightLeg 6.578623 -0.000000 -0.000000
RightFoot 40.436533 -29.959666 -10.946017
RightToeBase 42.351731 -0.000000 -0.000000
1180
root 17.625669 14.904286 -16.362992 -179.136115 26.638405 -193.833315
Spine 65.508065 -21.780613 -0.877836
Head -2.773847 -16.549858 -9.130551
LeftShoulder 24.850466 -41.483732 -5.150047
LeftArm 39.370304 37.926306 -60.231281
LeftForeArm 21.611606 0.000000 3.932972
LeftHand -3.110820 -0.000000 9.972858
LeftHandThumb1 -26.253704 0.000000 33.147579
RightShoulder 7.229778 -8.191540 2.032863
RightArm 55.980013 -10.004228 27.499228
RightForeArm -7.876237 -0.000000 19.031984
RightHand -16.556018 -0.000000 -20.761827
RightHandThumb1 -24.326973 -0.000000 -32.862282
LeftUpLeg 4.989510 3.423083 44.813068
LeftLeg 30.724885 -0.000000 -0.000000
LeftFoot 17.501846 49.766887 11.491727
LeftToeBase 21.709681 -0.000000 -0.000000
RightUpLeg -75.298419 -35.819103 -15.171074
RightLeg 6.927215 -0.000000 -0.000000
RightFoot 40.914287 -29.278626 -10.717788
RightToeBase 43.892156 -0.000000 -0.000000
1181
root 17.647206 14.958920 -16.326447 -178.622684 26.382869 -193.559742
Spine 65.334156 -22.225654 -0.343367
Head -3.102852 -16.370841 -9.163022
LeftShoulder 24.860097 -41.453766 -5.004547
LeftArm 39.601845 37.912070 -60.010937
LeftForeArm 21.416538 -0.000000 4.070816
LeftHand -3.229632 -0.000000 10.224349
LeftHandThumb1 -26.253704 0.000000 33.147579
RightShoulder 7.251995 -8.069861 2.002013
RightArm 55.872799 -9.762185 27.611740
RightForeArm -8.079457 -0.000000 19.185789
RightHand -16.407154 -0.000000 -20.741957
RightHandThumb1 -24.326973 -0.000000 -32.862282
LeftUpLeg 4.736342 3.870983 45.128296
LeftLeg 30.143093 -0.000000 -0.000000
LeftFoot 17.257303 49.861607 11.002821
LeftToeBase 21.778655 -0.000000 -0.000000
RightUpLeg -75.010963 -35.648258 -15.868335
RightLeg 7.306912 -0.000000 -0.000000
RightFoot 41.398963 -28.599130 -10.464019
RightToeBase 45.211955 -0.000000 -0.000000
